<svg viewBox="0 0 36 36" xmlns="http://www.w3.org/2000/svg" fill-rule="evenodd" clip-rule="evenodd" stroke-linejoin="round" stroke-miterlimit="1.414"><path d="M12 3l-9 8.985V24l9 9h12l9-9V11.985L24 3H12z" fill="#dd2e44" fill-rule="nonzero"/><path d="M24.827 1H11.173L1 11.156v13.672L11.172 35h13.657L35 24.828V11.156L24.827 1zM33 24l-9 9H12l-9-9V11.985L12 3h12l9 8.985V24z" fill="#ccd6dd" fill-rule="nonzero"/><path d="M16.392 8.979a1.5 1.5 0 0 1 1.5 1.5v.003l1.5-3.003a1.5 1.5 0 0 1 1.5 1.5v.771l1.5-.921a1.5 1.5 0 0 1 1.5 1.5v2.121l.6 5.55h-8.125l.025-9.021z" fill="#ef9645" fill-rule="nonzero"/><path d="M9.867 16.931c.829-.366 2.012.125 2.85 1.313.55.78.712 1.891 1.435 2.007.276.043.74-.188.74-.839V9.9s0-1.2 1.2-1.2 1.2 1.2 1.2 1.2v6.98c0-.018.6-.039.6-.049V8.4s0-1.2 1.2-1.2 1.2 1.2 1.2 1.2v8.432c0 .01.6.024.6.041V9.75s0-1.2 1.2-1.2 1.2 1.2 1.2 1.2v7.583c0 .071.6.15.6.239V12.45s0-1.2 1.2-1.2 1.2 1.2 1.2 1.2v9.15a7.2 7.2 0 0 1-7.2 7.2c-2.865 0-4.836-1.559-5.938-3.175a7.984 7.984 0 0 1-1.262-3.225s-.074-.887-.694-1.719a34.625 34.625 0 0 0-1.875-2.319c-.19-.216-.375-1.024.544-1.431z" fill="#ffdc5d" fill-rule="nonzero"/></svg>